<svg width="300" height="297" viewBox="0 0 300 297" fill="none" xmlns="http://www.w3.org/2000/svg">
<path d="M173.187 297C241.55 297 296.969 290.554 296.969 282.602C296.969 274.651 241.55 268.205 173.187 268.205C104.824 268.205 49.4043 274.651 49.4043 282.602C49.4043 290.554 104.824 297 173.187 297Z" fill="#3D0517"/>
<path d="M291.39 286.889C295.02 285.536 296.98 284.096 296.98 282.592C296.98 274.641 241.561 268.194 173.187 268.194C104.812 268.194 49.4043 274.641 49.4043 282.592C49.4043 284.085 51.3643 285.525 54.9936 286.889C70.6952 281.034 117.671 276.79 173.187 276.79C228.702 276.79 275.689 281.034 291.39 286.889Z" fill="url(#paint0_linear)"/>
<path d="M153.736 194.034C153.823 189.543 157.635 181.442 161.189 182.538C164.743 183.634 162.373 190.564 164.323 196.398C166.272 202.233 170.698 204.768 171.861 212.88C173.294 222.765 171.301 232.457 173.757 247.414C176.212 262.37 182.372 284.128 188.435 296.893C183.998 296.893 163.16 297.054 153.553 296.817C151.604 280.174 149.989 258.599 149.633 240.881C149.278 222.862 154.264 212.128 153.887 204.715C153.575 198.665 153.704 195.936 153.736 194.034Z" fill="url(#paint1_linear)"/>
<path d="M166.573 237.432C168.835 237.282 171.215 228.525 166.703 226.054C169.578 225.549 171.301 215.234 166.444 212.988C170.752 203.769 164.463 199.514 153.693 199.278C153.693 200.729 153.769 202.501 153.887 204.715C154.264 212.129 149.278 222.863 149.633 240.881C149.72 245.093 149.87 249.477 150.086 254.054C167.284 252.002 169.137 243.557 166.573 237.432Z" fill="#F2B36E"/>
<path d="M142.073 168.107V263.23C142.073 263.996 142.224 264.754 142.518 265.462C142.812 266.17 143.243 266.813 143.786 267.355C144.329 267.897 144.974 268.327 145.683 268.62C146.393 268.913 147.153 269.064 147.921 269.064C149.47 269.061 150.955 268.445 152.049 267.351C153.143 266.257 153.758 264.775 153.758 263.23V168.107H142.073Z" fill="#BE6C00"/>
<path d="M153.758 168.107H142.073V178.616H153.758V168.107Z" fill="#672300"/>
<path d="M142.073 197.881V250.164C142.073 253.388 153.758 253.388 153.758 250.164V197.881C153.758 195.915 142.073 195.431 142.073 197.881Z" fill="#672300"/>
<path d="M140.286 201.373C136.259 201.964 134.019 203.737 133.556 205.94C132.543 210.764 135.817 213.461 134.999 215.921C134.18 218.382 134.008 222.035 135.268 224.109C135.81 224.919 136.153 225.844 136.271 226.811C136.389 227.778 136.278 228.758 135.946 229.674C135.15 232.07 135.731 233.446 137.346 235.434C138.531 236.884 138.553 238.281 138.079 240.516C137.756 241.988 137.433 246.963 146.543 247.575C155.654 248.187 162.622 246.081 164.571 242.084C164.993 241.297 165.159 240.398 165.045 239.512C164.931 238.626 164.543 237.798 163.936 237.142C165.54 236.067 167.877 229.728 164.205 226.086C167.77 224.313 168.254 214.267 163.031 213.042C166.133 211.344 168.136 203.092 160.177 201.599C153.61 200.372 146.88 200.296 140.286 201.373Z" fill="#FDD087"/>
<g opacity="0.68">
<path opacity="0.68" d="M164.819 226.795C164.632 226.544 164.427 226.306 164.205 226.086C164.614 225.878 164.98 225.593 165.282 225.248L148.374 226.15L164.819 226.795Z" fill="#F2B36E"/>
<path opacity="0.68" d="M164.775 213.912C164.273 213.484 163.674 213.185 163.03 213.041C163.398 212.835 163.729 212.57 164.01 212.257L146.284 213.192L164.775 213.912Z" fill="#F2B36E"/>
<path opacity="0.68" d="M163.935 237.11C164.185 236.923 164.403 236.698 164.582 236.443L152.369 237.11L164.334 237.572C164.22 237.402 164.086 237.247 163.935 237.11Z" fill="#F2B36E"/>
</g>
<path d="M164.216 226.086C167.781 224.313 168.266 214.267 163.042 213.042C166.144 211.344 168.147 203.092 160.189 201.599C158.638 201.309 157.087 201.083 155.515 200.911C164.496 203.447 165.853 210.882 157.744 213.246C164.303 214.815 165.67 223.701 160.49 226.14C163.915 227.998 164.496 234.929 161.072 237.185C166.047 243.03 148.547 245.415 138.015 242.31C138.284 244.352 139.899 247.113 146.555 247.575C155.655 248.209 162.633 246.082 164.582 242.085C165.004 241.297 165.17 240.398 165.056 239.512C164.942 238.626 164.555 237.798 163.947 237.142C165.541 236.035 167.878 229.728 164.216 226.086Z" fill="#F2B36E"/>
<path d="M138.002 242.31C138.123 243.047 138.409 243.747 138.837 244.359C139.266 244.971 139.827 245.479 140.479 245.845C141.775 246.576 143.209 247.033 144.69 247.188C146.169 247.371 147.658 247.458 149.148 247.446C150.638 247.452 152.127 247.365 153.607 247.188C156.554 246.94 159.404 246.014 161.931 244.481C163.12 243.714 164.028 242.583 164.516 241.257C164.724 240.607 164.755 239.914 164.608 239.248C164.46 238.582 164.139 237.966 163.676 237.464L163.353 237.163L163.719 236.873C164.391 236.22 164.884 235.406 165.151 234.51C165.484 233.594 165.68 232.635 165.733 231.662C165.825 230.708 165.712 229.744 165.402 228.837C165.092 227.929 164.591 227.097 163.934 226.397L163.579 226.032L164.031 225.785C165.037 225.114 165.758 224.096 166.056 222.927C166.438 221.73 166.602 220.475 166.541 219.22C166.521 217.969 166.219 216.739 165.657 215.621C165.401 215.072 165.027 214.587 164.562 214.199C164.097 213.811 163.552 213.529 162.965 213.375L162.233 213.214L162.89 212.827C163.542 212.371 164.096 211.791 164.522 211.119C164.947 210.448 165.234 209.699 165.367 208.916C165.532 208.124 165.557 207.31 165.442 206.509C165.302 205.733 164.99 204.999 164.527 204.36C163.536 203.039 162.075 202.146 160.445 201.867C158.819 201.534 157.15 201.298 155.502 201.008C157.161 201.233 158.83 201.405 160.477 201.685C162.188 201.926 163.745 202.801 164.839 204.135C165.344 204.838 165.697 205.639 165.873 206.487C166.049 207.335 166.045 208.209 165.862 209.056C165.729 209.915 165.423 210.739 164.962 211.478C164.501 212.217 163.895 212.855 163.181 213.353L163.105 212.795C163.785 212.955 164.421 213.263 164.966 213.698C165.512 214.133 165.954 214.683 166.261 215.309C166.88 216.511 167.219 217.837 167.251 219.188C167.324 220.528 167.156 221.871 166.756 223.153C166.415 224.518 165.564 225.702 164.376 226.462L164.473 225.86C165.23 226.623 165.801 227.55 166.142 228.568C166.477 229.578 166.612 230.644 166.541 231.705C166.477 232.756 166.259 233.791 165.894 234.778C165.571 235.826 164.968 236.766 164.15 237.497V236.906C164.724 237.498 165.127 238.234 165.316 239.036C165.506 239.838 165.475 240.676 165.227 241.461C164.699 242.963 163.683 244.245 162.341 245.104C159.71 246.683 156.736 247.604 153.671 247.79C152.168 247.935 150.658 247.989 149.148 247.951C147.64 247.941 146.135 247.811 144.647 247.564C143.14 247.345 141.694 246.827 140.393 246.039C139.738 245.637 139.183 245.093 138.769 244.448C138.355 243.802 138.093 243.071 138.002 242.31Z" fill="#CB8940"/>
<path d="M163.311 212.946C162.303 213.17 161.275 213.3 160.242 213.333C159.206 213.394 158.167 213.347 157.141 213.193C159.168 212.759 161.255 212.675 163.311 212.946Z" fill="#CB8940"/>
<path d="M164.603 225.946C162.581 226.391 160.496 226.478 158.443 226.205C160.466 225.76 162.551 225.673 164.603 225.946Z" fill="#CB8940"/>
<path d="M164.334 237.11C163.319 237.301 162.287 237.392 161.254 237.38C160.217 237.386 159.183 237.296 158.163 237.11C159.182 236.919 160.217 236.829 161.254 236.841C162.287 236.834 163.318 236.925 164.334 237.11Z" fill="#CB8940"/>
<path d="M152.261 284.58C152.67 288.877 153.101 292.971 153.553 296.818C163.159 297.054 183.998 296.936 188.435 296.893C187.164 294.218 185.904 291.123 184.655 287.803C172.475 288.963 159.519 287.824 152.261 284.58Z" fill="#E4A04E"/>
<path d="M274.129 1.05562L12.5448 23.0629C5.61649 23.6458 0.473604 29.7219 1.05782 36.6343L12.2686 169.279C12.8528 176.191 18.9429 181.322 25.8712 180.739L287.455 158.732C294.384 158.149 299.526 152.073 298.942 145.161L287.731 12.5163C287.147 5.60385 281.057 0.472739 274.129 1.05562Z" fill="url(#paint2_linear)"/>
<path d="M268.113 7.49217L19.5455 28.4043C13.0203 28.9533 8.17652 34.676 8.72676 41.1863L19.0652 163.51C19.6154 170.02 25.3513 174.853 31.8766 174.304L280.444 153.391C286.969 152.842 291.813 147.12 291.262 140.609L280.924 18.2862C280.374 11.7758 274.638 6.9432 268.113 7.49217Z" stroke="black" stroke-width="0.95" stroke-miterlimit="10"/>
<g opacity="0.51">
<path opacity="0.51" d="M184.848 8.56091L40.1514 179.54L97.6163 174.694L242.323 3.72583L184.848 8.56091Z" fill="white"/>
<path opacity="0.51" d="M252.532 2.86633L107.825 173.846L126.553 172.266L271.26 1.28687L252.532 2.86633Z" fill="white"/>
<path opacity="0.51" d="M157.839 10.8387L16.5889 177.724C17.8563 178.819 19.3307 179.649 20.9252 180.166C22.5196 180.683 24.2017 180.876 25.872 180.733L31.8597 180.239L176.567 9.25928L157.839 10.8387Z" fill="white"/>
</g>
<path d="M47.5436 140.822L45.9365 121.807L72.9444 75.5408L97.5661 73.4694L101.197 116.433L108.615 115.809L110.283 135.543L102.865 136.167L103.821 147.474L80.7443 149.415L79.7888 138.109L47.5436 140.822ZM78.5419 101.259L68.8491 119.154L79.9752 118.218L78.5419 101.259Z" fill="#3D2600"/>
<path d="M115.709 107.552C114.707 95.6977 116.426 86.1677 120.866 78.9622C125.375 71.7509 132.884 67.7032 143.392 66.8192C153.831 65.9409 161.881 68.7141 167.543 75.1388C173.199 81.4949 176.524 90.5659 177.521 102.352C178.522 114.206 176.772 123.773 172.269 131.053C167.76 138.264 160.286 142.309 149.846 143.187C139.338 144.071 131.256 141.335 125.601 134.979C120.008 128.549 116.711 119.406 115.709 107.552ZM154.959 104.25C154.496 98.7681 153.599 94.703 152.269 92.0545C150.932 89.3375 148.581 88.1206 145.216 88.4037C141.782 88.6926 139.634 90.288 138.773 93.1899C137.906 96.0232 137.704 100.181 138.167 105.663C138.636 111.213 139.539 115.347 140.875 118.064C142.206 120.712 144.588 121.892 148.022 121.603C151.387 121.32 153.504 119.762 154.371 116.928C155.232 114.026 155.428 109.8 154.959 104.25Z" fill="#3D2600"/>
<path d="M188.29 128.981L186.683 109.966L213.691 63.6997L238.313 61.6283L241.944 104.592L249.361 103.968L251.029 123.702L243.612 124.326L244.567 135.633L221.491 137.574L220.535 126.268L188.29 128.981ZM219.288 89.418L209.596 107.313L220.722 106.377L219.288 89.418Z" fill="#3D2600"/>
<path d="M120.132 41.7075C120.221 42.7565 120.113 43.6919 119.808 44.5136C119.503 45.3354 119.022 45.9901 118.364 46.4779C117.71 46.9653 116.936 47.2467 116.041 47.322C115.156 47.3964 114.348 47.2506 113.618 46.8846C112.888 46.5185 112.298 45.9587 111.851 45.2052C111.402 44.4469 111.132 43.5556 111.041 42.5313L110.996 42.0044C110.908 40.9553 111.018 40.0173 111.327 39.1903C111.641 38.358 112.125 37.7005 112.779 37.218C113.437 36.7302 114.211 36.4489 115.101 36.374C115.991 36.2991 116.799 36.4474 117.525 36.8187C118.255 37.1848 118.843 37.7521 119.287 38.5206C119.735 39.2839 120.004 40.1876 120.092 41.2317L120.132 41.7075ZM117.861 41.412C117.767 40.2947 117.495 39.4625 117.045 38.9156C116.595 38.3687 115.998 38.1266 115.254 38.1891C114.516 38.2512 113.971 38.587 113.618 39.1965C113.265 39.8012 113.133 40.6575 113.222 41.7655L113.266 42.2851C113.358 43.3732 113.63 44.2005 114.082 44.7669C114.533 45.3333 115.136 45.5849 115.889 45.5215C116.627 45.4594 117.17 45.1238 117.518 44.5147C117.865 43.9007 117.994 43.0397 117.905 41.9317L117.861 41.412Z" fill="#3D2600"/>
<path d="M123.454 35.8187L124.206 44.7112L127.169 44.4619L126.418 35.5693L128.626 35.3836L129.378 44.2761L132.312 44.0293L131.56 35.1367L133.761 34.9515L134.662 45.608L122.147 46.6609L121.246 36.0044L123.454 35.8187Z" fill="#3D2600"/>
<path d="M142.072 34.2523L144.281 34.0665L145.181 44.723L142.973 44.9087L142.375 37.8313L138.696 45.2685L136.496 45.4537L135.595 34.7973L137.796 34.6121L138.395 41.7042L142.072 34.2523Z" fill="#3D2600"/>
<path d="M153.307 35.0983L148.539 35.4994L148.713 37.5634L150.43 37.419C151.687 37.3132 152.708 37.5345 153.493 38.0827C154.283 38.6256 154.721 39.4118 154.808 40.4413C154.895 41.4757 154.599 42.3385 153.918 43.0297C153.243 43.7155 152.299 44.1144 151.087 44.2262L147.067 44.5644L146.166 33.9079L153.157 33.3198L153.307 35.0983ZM148.863 39.3346L149.14 42.6135L150.893 42.466C151.456 42.4187 151.89 42.2273 152.197 41.8919C152.508 41.5562 152.642 41.1297 152.599 40.6124C152.558 40.1294 152.364 39.7624 152.018 39.5114C151.676 39.2552 151.226 39.1456 150.668 39.1828L148.863 39.3346Z" fill="#3D2600"/>
<path d="M159.624 39.1221L158.355 39.2289L158.723 43.5837L156.522 43.7688L155.622 33.1124L157.822 32.9272L158.183 37.1942L159.188 37.1097L161.439 32.623L164.124 32.3971L161.256 37.717L165.369 43.0245L162.743 43.2455L159.624 39.1221Z" fill="#3D2600"/>
<path d="M172.065 40.2499L168.206 40.5746L167.658 42.832L165.318 43.0289L168.393 32.0379L170.433 31.8663L175.331 42.1864L172.991 42.3833L172.065 40.2499ZM168.65 38.7461L171.32 38.5214L169.641 34.6455L168.65 38.7461Z" fill="#3D2600"/>
<defs>
<linearGradient id="paint0_linear" x1="49.4043" y1="277.552" x2="296.98" y2="277.552" gradientUnits="userSpaceOnUse">
<stop stop-color="#410820"/>
<stop offset="0.52" stop-color="#8C0031"/>
<stop offset="1" stop-color="#410820"/>
</linearGradient>
<linearGradient id="paint1_linear" x1="176.04" y1="226.182" x2="161.22" y2="282.222" gradientUnits="userSpaceOnUse">
<stop stop-color="#FDD087"/>
<stop offset="1" stop-color="#F2BD76"/>
</linearGradient>
<linearGradient id="paint2_linear" x1="111.518" y1="126.101" x2="238.771" y2="8.96825" gradientUnits="userSpaceOnUse">
<stop stop-color="#FFBC00"/>
<stop offset="1" stop-color="#FFFF00"/>
</linearGradient>
</defs>
</svg>
