<svg width="13" height="12" viewBox="0 0 13 12" fill="none" xmlns="http://www.w3.org/2000/svg">
<path d="M6.42753 10.677L6.42753 10.677L6.42664 10.6779C6.40341 10.7012 6.37583 10.7196 6.34545 10.7322C6.31508 10.7448 6.28252 10.7513 6.24964 10.7513C6.21675 10.7513 6.18419 10.7448 6.15382 10.7322C6.12345 10.7196 6.09586 10.7012 6.07264 10.6779L6.07219 10.6774L1.57219 6.17743L1.57174 6.17699C1.54846 6.15377 1.52999 6.12618 1.51738 6.0958L1.05557 6.28744L1.51738 6.0958C1.50478 6.06543 1.49829 6.03287 1.49829 5.99999C1.49829 5.9671 1.50478 5.93454 1.51738 5.90417L1.05557 5.71254L1.51738 5.90417C1.52999 5.8738 1.54846 5.84621 1.57174 5.82299L1.57219 5.82254L6.07219 1.32254L5.71864 0.968988L6.07219 1.32254C6.11925 1.27548 6.18308 1.24904 6.24964 1.24904C6.31619 1.24904 6.38002 1.27548 6.42708 1.32254C6.47415 1.3696 6.50058 1.43343 6.50058 1.49999C6.50058 1.56654 6.47415 1.63037 6.42708 1.67743L2.45665 5.64637L2.10289 5.99999L2.45665 6.35361L6.42715 10.3226L6.42753 10.323C6.45081 10.3462 6.46928 10.3738 6.48189 10.4042C6.49449 10.4345 6.50098 10.4671 6.50098 10.5C6.50098 10.5329 6.49449 10.5654 6.48189 10.5958C6.46928 10.6262 6.45081 10.6538 6.42753 10.677Z" fill="black" stroke="black"/>
<path d="M12.5 6C12.5 6.0663 12.4737 6.12989 12.4268 6.17678C12.3799 6.22366 12.3163 6.25 12.25 6.25L2.5 6.25C2.4337 6.25 2.37011 6.22366 2.32322 6.17678C2.27634 6.12989 2.25 6.0663 2.25 6C2.25 5.93369 2.27634 5.8701 2.32322 5.82322C2.37011 5.77634 2.43369 5.75 2.5 5.75L12.25 5.75C12.3163 5.75 12.3799 5.77634 12.4268 5.82322C12.4737 5.87011 12.5 5.9337 12.5 6Z" fill="black" stroke="black"/>
</svg>
