<svg width="22" height="19" viewBox="0 0 22 19" fill="none" xmlns="http://www.w3.org/2000/svg">
<path d="M13.3102 14.38L12.0002 15.64V10C12.0002 9.73478 11.8948 9.48043 11.7073 9.29289C11.5198 9.10536 11.2654 9 11.0002 9C10.735 9 10.4806 9.10536 10.2931 9.29289C10.1055 9.48043 10.0002 9.73478 10.0002 10V15.59L8.71019 14.29C8.61695 14.1968 8.50626 14.1228 8.38444 14.0723C8.26261 14.0219 8.13204 13.9959 8.00019 13.9959C7.86833 13.9959 7.73776 14.0219 7.61594 14.0723C7.49411 14.1228 7.38342 14.1968 7.29019 14.29C7.19695 14.3832 7.12299 14.4939 7.07253 14.6158C7.02207 14.7376 6.99609 14.8681 6.99609 15C6.99609 15.1319 7.02207 15.2624 7.07253 15.3842C7.12299 15.5061 7.19695 15.6168 7.29019 15.71L10.2902 18.71C10.3836 18.8027 10.4944 18.876 10.6163 18.9258C10.7381 18.9755 10.8686 19.0008 11.0002 19C11.2577 18.999 11.5048 18.8987 11.6902 18.72L14.6902 15.82C14.7963 15.7324 14.8832 15.6239 14.9455 15.5013C15.0077 15.3786 15.044 15.2444 15.052 15.107C15.0601 14.9697 15.0397 14.8322 14.9921 14.7031C14.9446 14.574 14.8709 14.4561 14.7757 14.3568C14.6805 14.2575 14.5659 14.1788 14.4389 14.1259C14.312 14.0729 14.1754 14.0466 14.0379 14.0488C13.9003 14.051 13.7647 14.0815 13.6395 14.1385C13.5143 14.1955 13.4022 14.2777 13.3102 14.38Z" fill="#FFB300"/>
<path d="M16.6704 5C16.2623 3.82105 15.497 2.79861 14.4807 2.07496C13.4645 1.3513 12.2479 0.962418 11.0004 0.962418C9.75282 0.962418 8.53628 1.3513 7.52005 2.07496C6.50381 2.79861 5.73842 3.82105 5.33038 5C4.43194 5.12033 3.5831 5.48265 2.87468 6.04819C2.16627 6.61373 1.62492 7.36121 1.30855 8.21069C0.992181 9.06016 0.912693 9.97965 1.07859 10.8708C1.24449 11.762 1.64953 12.5913 2.25038 13.27C2.32296 13.3978 2.42284 13.5081 2.54289 13.5929C2.66295 13.6778 2.80023 13.7351 2.94497 13.7609C3.08971 13.7866 3.23834 13.7801 3.38029 13.7418C3.52223 13.7036 3.65399 13.6345 3.76618 13.5395C3.87838 13.4445 3.96825 13.3259 4.0294 13.1922C4.09055 13.0586 4.12147 12.913 4.11996 12.766C4.11845 12.619 4.08455 12.4742 4.02067 12.3418C3.95679 12.2094 3.86451 12.0927 3.75038 12C3.3635 11.5675 3.11037 11.032 3.02167 10.4585C2.93297 9.88499 3.01252 9.29807 3.25066 8.76887C3.4888 8.23966 3.87532 7.79089 4.36338 7.47693C4.85143 7.16296 5.42007 6.99729 6.00038 7H6.10038C6.33433 7.00471 6.56252 6.92724 6.74524 6.78107C6.92796 6.63489 7.05363 6.42927 7.10038 6.2C7.284 5.29576 7.77457 4.48282 8.48898 3.89889C9.20339 3.31497 10.0977 2.99599 11.0204 2.99599C11.9431 2.99599 12.8374 3.31497 13.5518 3.89889C14.2662 4.48282 14.7568 5.29576 14.9404 6.2C14.9871 6.42927 15.1128 6.63489 15.2955 6.78107C15.4782 6.92724 15.7064 7.00471 15.9404 7H16.0004C16.5807 6.99729 17.1493 7.16296 17.6374 7.47693C18.1254 7.79089 18.512 8.23966 18.7501 8.76887C18.9883 9.29807 19.0678 9.88499 18.9791 10.4585C18.8904 11.032 18.6373 11.5675 18.2504 12C18.1623 12.0988 18.0947 12.2141 18.0515 12.3392C18.0083 12.4643 17.9904 12.5967 17.9987 12.7288C18.0071 12.8609 18.0416 12.99 18.1003 13.1086C18.1589 13.2273 18.2405 13.3331 18.3404 13.42C18.5227 13.5808 18.7573 13.6696 19.0004 13.67C19.1424 13.6698 19.2827 13.6394 19.412 13.5808C19.5413 13.5222 19.6567 13.4367 19.7504 13.33C20.3679 12.6524 20.7873 11.8182 20.9626 10.9183C21.138 10.0185 21.0625 9.08782 20.7446 8.22797C20.4267 7.36812 19.8785 6.61223 19.1599 6.04293C18.4414 5.47363 17.5802 5.11284 16.6704 5Z" fill="#FFB300"/>
</svg>
