<svg width="13" height="12" viewBox="0 0 13 12" fill="none" xmlns="http://www.w3.org/2000/svg">
<path fill-rule="evenodd" clip-rule="evenodd" d="M6.78112 11.031C6.71146 11.1008 6.62869 11.1563 6.53757 11.1941C6.44646 11.2319 6.34878 11.2513 6.25012 11.2513C6.15147 11.2513 6.05379 11.2319 5.96267 11.1941C5.87156 11.1563 5.78879 11.1008 5.71912 11.031L1.21912 6.531C1.14928 6.46133 1.09386 6.37857 1.05605 6.28745C1.01824 6.19634 0.998783 6.09865 0.998783 6C0.998783 5.90135 1.01824 5.80367 1.05605 5.71255C1.09386 5.62144 1.14928 5.53867 1.21912 5.469L5.71912 0.969004C5.85995 0.828174 6.05096 0.749057 6.25013 0.749057C6.44929 0.749057 6.6403 0.828174 6.78113 0.969004C6.92196 1.10983 7.00107 1.30084 7.00107 1.5C7.00107 1.69917 6.92196 1.89017 6.78113 2.031L2.81062 6L6.78112 9.969C6.85097 10.0387 6.90638 10.1214 6.94419 10.2126C6.982 10.3037 7.00146 10.4014 7.00146 10.5C7.00146 10.5987 6.982 10.6963 6.94419 10.7875C6.90638 10.8786 6.85097 10.9613 6.78112 11.031Z" fill="#FFB300"/>
<path fill-rule="evenodd" clip-rule="evenodd" d="M13 6C13 6.19891 12.921 6.38968 12.7803 6.53033C12.6397 6.67098 12.4489 6.75 12.25 6.75L2.5 6.75C2.30109 6.75 2.11032 6.67098 1.96967 6.53033C1.82902 6.38968 1.75 6.19891 1.75 6C1.75 5.80109 1.82902 5.61032 1.96967 5.46967C2.11032 5.32902 2.30109 5.25 2.5 5.25L12.25 5.25C12.4489 5.25 12.6397 5.32902 12.7803 5.46967C12.921 5.61032 13 5.80109 13 6Z" fill="#FFB300"/>
</svg>
