<svg width="20" height="20" viewBox="0 0 20 20" fill="none" xmlns="http://www.w3.org/2000/svg">
<path d="M13.4713 4.4075C12.4488 3.1025 11.3912 1.755 10.5387 0.3075C10.4262 0.1175 10.2213 0 10 0C9.77875 0 9.57375 0.1175 9.4625 0.3075C8.61 1.75375 7.5525 3.1025 6.53 4.40625C4.4575 7.04875 2.5 9.545 2.5 12.5C2.5 16.6362 5.86375 20 10 20C14.1362 20 17.5 16.6362 17.5 12.5C17.5 9.54625 15.5438 7.05 13.4713 4.4075ZM10 18.75C6.55375 18.75 3.75 15.9462 3.75 12.5C3.75 9.97625 5.5775 7.64625 7.51375 5.1775C8.35875 4.1 9.22625 2.99375 10 1.80875C10.7738 2.99375 11.6413 4.10125 12.4862 5.17875C14.4225 7.64625 16.25 9.9775 16.25 12.5C16.25 15.9462 13.4462 18.75 10 18.75Z" fill="black"/>
<path d="M8.125 7.5C7.09125 7.5 6.25 8.34125 6.25 9.375C6.25 10.4088 7.09125 11.25 8.125 11.25C9.15875 11.25 10 10.4088 10 9.375C10 8.34125 9.15875 7.5 8.125 7.5ZM8.125 10C7.78 10 7.5 9.72 7.5 9.375C7.5 9.03 7.78 8.75 8.125 8.75C8.47 8.75 8.75 9.03 8.75 9.375C8.75 9.72 8.47 10 8.125 10Z" fill="black"/>
<path d="M11.875 13.75C10.8412 13.75 10 14.5912 10 15.625C10 16.6588 10.8412 17.5 11.875 17.5C12.9088 17.5 13.75 16.6588 13.75 15.625C13.75 14.5912 12.9088 13.75 11.875 13.75ZM11.875 16.25C11.5312 16.25 11.25 15.9688 11.25 15.625C11.25 15.2812 11.5312 15 11.875 15C12.2188 15 12.5 15.2812 12.5 15.625C12.5 15.9688 12.2188 16.25 11.875 16.25Z" fill="black"/>
<path d="M13.5661 8.93379C13.3223 8.69004 12.9261 8.69004 12.6823 8.93379L6.43232 15.1838C6.18857 15.4275 6.18857 15.8238 6.43232 16.0675C6.55482 16.1888 6.71482 16.25 6.87482 16.25C7.03482 16.25 7.19482 16.1888 7.31607 16.0675L13.5661 9.81754C13.8098 9.57379 13.8098 9.17754 13.5661 8.93379Z" fill="black"/>
</svg>
