<svg width="40" height="40" viewBox="0 0 40 40" fill="none" xmlns="http://www.w3.org/2000/svg">
<path d="M26.9425 8.815C24.8975 6.205 22.7825 3.51 21.0775 0.615C20.8525 0.235 20.4425 0 20 0C19.5575 0 19.1475 0.235 18.925 0.615C17.22 3.5075 15.105 6.205 13.06 8.8125C8.915 14.0975 5 19.09 5 25C5 33.2725 11.7275 40 20 40C28.2725 40 35 33.2725 35 25C35 19.0925 31.0875 14.1 26.9425 8.815ZM20 37.5C13.1075 37.5 7.5 31.8925 7.5 25C7.5 19.9525 11.155 15.2925 15.0275 10.355C16.7175 8.2 18.4525 5.9875 20 3.6175C21.5475 5.9875 23.2825 8.2025 24.9725 10.3575C28.845 15.2925 32.5 19.955 32.5 25C32.5 31.8925 26.8925 37.5 20 37.5Z" fill="#FFB300"/>
<path d="M16.25 15C14.1825 15 12.5 16.6825 12.5 18.75C12.5 20.8175 14.1825 22.5 16.25 22.5C18.3175 22.5 20 20.8175 20 18.75C20 16.6825 18.3175 15 16.25 15ZM16.25 20C15.56 20 15 19.44 15 18.75C15 18.06 15.56 17.5 16.25 17.5C16.94 17.5 17.5 18.06 17.5 18.75C17.5 19.44 16.94 20 16.25 20Z" fill="#FFB300"/>
<path d="M23.75 27.5C21.6825 27.5 20 29.1825 20 31.25C20 33.3175 21.6825 35 23.75 35C25.8175 35 27.5 33.3175 27.5 31.25C27.5 29.1825 25.8175 27.5 23.75 27.5ZM23.75 32.5C23.0625 32.5 22.5 31.9375 22.5 31.25C22.5 30.5625 23.0625 30 23.75 30C24.4375 30 25 30.5625 25 31.25C25 31.9375 24.4375 32.5 23.75 32.5Z" fill="#FFB300"/>
<path d="M27.1321 17.8675C26.6446 17.38 25.8521 17.38 25.3646 17.8675L12.8646 30.3675C12.3771 30.855 12.3771 31.6475 12.8646 32.135C13.1096 32.3775 13.4296 32.5 13.7496 32.5C14.0696 32.5 14.3896 32.3775 14.6321 32.135L27.1321 19.635C27.6196 19.1475 27.6196 18.355 27.1321 17.8675Z" fill="#FFB300"/>
</svg>
