<svg width="11" height="17" viewBox="0 0 11 17" fill="none" xmlns="http://www.w3.org/2000/svg">
<path d="M5.5 0C2.45929 0 0 2.6605 0 5.95C0 10.4125 5.5 17 5.5 17C5.5 17 11 10.4125 11 5.95C11 2.6605 8.54071 0 5.5 0ZM5.5 8.075C4.97904 8.075 4.47942 7.85112 4.11104 7.4526C3.74267 7.05409 3.53571 6.51359 3.53571 5.95C3.53571 5.38642 3.74267 4.84591 4.11104 4.4474C4.47942 4.04888 4.97904 3.825 5.5 3.825C6.02096 3.825 6.52058 4.04888 6.88896 4.4474C7.25733 4.84591 7.46429 5.38642 7.46429 5.95C7.46429 6.51359 7.25733 7.05409 6.88896 7.4526C6.52058 7.85112 6.02096 8.075 5.5 8.075Z" fill="#FFB300"/>
</svg>
