<svg width="24" height="24" viewBox="0 0 24 24" fill="none" xmlns="http://www.w3.org/2000/svg">
<path d="M23.1837 7.38132C23.1711 6.4346 22.9939 5.49729 22.66 4.61132C22.3704 3.86401 21.9281 3.18532 21.3614 2.61861C20.7947 2.0519 20.116 1.60963 19.3687 1.32007C18.4941 0.991765 17.5702 0.814245 16.6362 0.795068C15.4337 0.741318 15.0525 0.726318 12 0.726318C8.94747 0.726318 8.55622 0.726318 7.36247 0.795068C6.42891 0.814386 5.5054 0.991903 4.63122 1.32007C3.88379 1.60943 3.20499 2.05162 2.63826 2.61836C2.07152 3.18509 1.62933 3.86389 1.33997 4.61132C1.011 5.48523 0.83387 6.40896 0.816216 7.34257C0.762466 8.54632 0.746216 8.92757 0.746216 11.9801C0.746216 15.0326 0.746216 15.4226 0.816216 16.6176C0.834966 17.5526 1.01122 18.4751 1.33997 19.3513C1.62981 20.0985 2.07234 20.777 2.63926 21.3435C3.20619 21.91 3.88505 22.352 4.63247 22.6413C5.50426 22.9828 6.42793 23.173 7.36372 23.2038C8.56747 23.2576 8.94872 23.2738 12.0012 23.2738C15.0537 23.2738 15.445 23.2738 16.6387 23.2038C17.5727 23.1854 18.4967 23.0083 19.3712 22.6801C20.1183 22.3902 20.7969 21.9478 21.3635 21.3811C21.9302 20.8145 22.3726 20.1359 22.6625 19.3888C22.9912 18.5138 23.1675 17.5913 23.1862 16.6551C23.24 15.4526 23.2562 15.0713 23.2562 12.0176C23.2537 8.96507 23.2537 8.57757 23.1837 7.38132ZM11.9925 17.7526C8.79997 17.7526 6.21372 15.1663 6.21372 11.9738C6.21372 8.78132 8.79997 6.19507 11.9925 6.19507C13.5251 6.19507 14.9949 6.8039 16.0787 7.88763C17.1624 8.97135 17.7712 10.4412 17.7712 11.9738C17.7712 13.5064 17.1624 14.9763 16.0787 16.06C14.9949 17.1437 13.5251 17.7526 11.9925 17.7526ZM18.0012 7.32882C17.255 7.32882 16.6537 6.72632 16.6537 5.98132C16.6537 5.80444 16.6886 5.6293 16.7562 5.46589C16.8239 5.30248 16.9231 5.154 17.0482 5.02893C17.1733 4.90387 17.3218 4.80466 17.4852 4.73697C17.6486 4.66928 17.8237 4.63444 18.0006 4.63444C18.1775 4.63444 18.3526 4.66928 18.516 4.73697C18.6794 4.80466 18.8279 4.90387 18.953 5.02893C19.078 5.154 19.1773 5.30248 19.2449 5.46589C19.3126 5.6293 19.3475 5.80444 19.3475 5.98132C19.3475 6.72632 18.745 7.32882 18.0012 7.32882Z" fill="#FFB300"/>
<path d="M11.9925 15.7275C14.0657 15.7275 15.7463 14.0469 15.7463 11.9737C15.7463 9.90058 14.0657 8.21997 11.9925 8.21997C9.91938 8.21997 8.23877 9.90058 8.23877 11.9737C8.23877 14.0469 9.91938 15.7275 11.9925 15.7275Z" fill="#FFB300"/>
</svg>
