<svg width="17" height="12" viewBox="0 0 17 12" fill="none" xmlns="http://www.w3.org/2000/svg">
<path d="M13.551 6.75583L10.1731 9.95848L13.551 6.75583ZM13.551 6.75583L1.52922 6.75583L1.52883 6.75583C1.10898 6.75518 0.75 6.43367 0.75 6.00361C0.75 5.57815 1.10425 5.24463 1.52922 5.24463L13.5501 5.24463L10.173 2.04871L10.173 2.04874L10.1698 2.04557C9.8675 1.74895 9.86258 1.26269 10.1729 0.968973C10.4784 0.679305 10.9713 0.674251 11.2743 0.970378L16.012 5.46227C16.3292 5.75462 16.3295 6.24516 16.0119 6.53737L11.2743 11.0297C10.9709 11.3256 10.4786 11.3209 10.1729 11.031C9.86472 10.7389 9.86433 10.2507 10.1729 9.95868L13.551 6.75583Z" fill="#9E9E9E" stroke="#9E9E9E" stroke-width="0.5"/>
</svg>
