<svg width="17" height="12" viewBox="0 0 17 12" fill="none" xmlns="http://www.w3.org/2000/svg">
<path d="M3.44904 5.24417L6.82693 2.04152L3.44904 5.24417ZM3.44904 5.24417L15.4708 5.24417L15.4712 5.24417C15.891 5.24482 16.25 5.56633 16.25 5.99639C16.25 6.42185 15.8957 6.75537 15.4708 6.75537H3.44989L6.82697 9.95129L6.827 9.95126L6.83023 9.95443C7.13251 10.251 7.13742 10.7373 6.82714 11.031C6.52162 11.3207 6.02875 11.3257 5.72569 11.0296L0.98802 6.53774C0.670825 6.24538 0.670465 5.75484 0.988112 5.46263L5.72573 0.970331C6.02909 0.674427 6.52145 0.679143 6.82714 0.968973C7.13528 1.26113 7.13567 1.74926 6.82714 2.04132L3.44904 5.24417Z" fill="#9E9E9E" stroke="#9E9E9E" stroke-width="0.5"/>
</svg>
