<svg width="40" height="40" viewBox="0 0 40 40" fill="none" xmlns="http://www.w3.org/2000/svg">
<g clip-path="url(#clip0)">
<path d="M24.7519 5.56452C21.2414 5.56452 18.046 7.45145 16.3369 10.4527C10.6953 9.48298 5.96597 14.2365 6.38089 19.2987C2.82266 19.5352 0 22.5055 0 26.1225C0 29.8935 3.0679 32.9614 6.83895 32.9614H24.1663C30.1061 32.9614 34.2171 27.0177 32.1642 21.4798C37.4273 15.244 32.9944 5.56452 24.7519 5.56452ZM24.7519 8.14516C30.3556 8.14516 33.7268 14.3548 30.7609 19.0369C28.8635 16.7234 25.9104 15.562 22.9231 15.9992C22.1971 13.9474 20.7189 12.2845 18.8437 11.3018C20.1461 9.35097 22.3484 8.14516 24.7519 8.14516ZM24.1664 30.3809H6.83895C4.49097 30.3809 2.58065 28.4706 2.58065 26.1225C2.58065 23.4696 4.99855 21.4407 7.63484 21.9382C8.52435 22.1061 9.30621 21.3277 9.14339 20.438C9.05911 19.9777 8.94048 19.1821 8.94048 18.8541C8.94048 15.5756 11.6077 12.9085 14.8861 12.9085C17.7529 12.9085 20.2114 14.9504 20.7319 17.7637C20.8727 18.5244 21.6477 18.9915 22.3862 18.7603C26.2146 17.5618 30.1119 20.4335 30.1119 24.4352C30.112 27.7136 27.4448 30.3809 24.1664 30.3809ZM40 15.2419C40 15.9545 39.4223 16.5323 38.7097 16.5323H37.2581C36.5455 16.5323 35.9677 15.9545 35.9677 15.2419C35.9677 14.5294 36.5455 13.9516 37.2581 13.9516H38.7097C39.4223 13.9516 40 14.5294 40 15.2419ZM23.4555 2.74194V1.29032C23.4555 0.577742 24.0332 0 24.7458 0C25.4584 0 26.0361 0.577742 26.0361 1.29032V2.74194C26.0361 3.45452 25.4584 4.03226 24.7458 4.03226C24.0332 4.03226 23.4555 3.45452 23.4555 2.74194ZM35.5296 4.46169C36.0335 4.96556 36.0335 5.78258 35.5296 6.28645L34.5031 7.3129C34.2512 7.56484 33.921 7.69081 33.5908 7.69081C32.4517 7.69081 31.8631 6.30339 32.6785 5.48806L33.7049 4.46161C34.2087 3.95782 35.0257 3.95782 35.5296 4.46169ZM13.9656 6.29516C13.4616 5.79121 13.4616 4.97427 13.9656 4.4704C14.4694 3.96645 15.2864 3.96645 15.7903 4.4704L16.8168 5.49685C17.6323 6.31234 17.0433 7.6996 15.9044 7.6996C15.5742 7.6996 15.244 7.57363 14.9921 7.32169L13.9656 6.29516ZM6.12903 35.5645V36.371C6.12903 37.0835 5.55129 37.6613 4.83871 37.6613C4.12613 37.6613 3.54839 37.0835 3.54839 36.371V35.5645C3.54839 34.8519 4.12613 34.2742 4.83871 34.2742C5.55129 34.2742 6.12903 34.8519 6.12903 35.5645ZM11.7742 35.5645V38.7097C11.7742 39.4223 11.1965 40 10.4839 40C9.77129 40 9.19355 39.4223 9.19355 38.7097V35.5645C9.19355 34.8519 9.77129 34.2742 10.4839 34.2742C11.1965 34.2742 11.7742 34.8519 11.7742 35.5645ZM17.4194 35.5645V36.371C17.4194 37.0835 16.8416 37.6613 16.129 37.6613C15.4165 37.6613 14.8387 37.0835 14.8387 36.371V35.5645C14.8387 34.8519 15.4165 34.2742 16.129 34.2742C16.8416 34.2742 17.4194 34.8519 17.4194 35.5645ZM23.0645 35.5645V38.7097C23.0645 39.4223 22.4868 40 21.7742 40C21.0616 40 20.4839 39.4223 20.4839 38.7097V35.5645C20.4839 34.8519 21.0616 34.2742 21.7742 34.2742C22.4868 34.2742 23.0645 34.8519 23.0645 35.5645ZM28.7097 35.5645V36.371C28.7097 37.0835 28.1319 37.6613 27.4194 37.6613C26.7068 37.6613 26.129 37.0835 26.129 36.371V35.5645C26.129 34.8519 26.7068 34.2742 27.4194 34.2742C28.1319 34.2742 28.7097 34.8519 28.7097 35.5645Z" fill="#FFB300"/>
</g>
<defs>
<clipPath id="clip0">
<rect width="40" height="40" fill="white"/>
</clipPath>
</defs>
</svg>
