<svg width="20" height="20" viewBox="0 0 20 20" fill="none" xmlns="http://www.w3.org/2000/svg">
<g clip-path="url(#clip0)">
<path d="M12.376 2.78226C10.6207 2.78226 9.02298 3.72573 8.16847 5.22633C5.34766 4.74149 2.98298 7.11823 3.19044 9.64935C1.41133 9.76762 0 11.2527 0 13.0612C0 14.9468 1.53395 16.4807 3.41948 16.4807H12.0831C15.0531 16.4807 17.1085 13.5088 16.0821 10.7399C18.7136 7.62198 16.4972 2.78226 12.376 2.78226ZM12.376 4.07258C15.1778 4.07258 16.8634 7.17738 15.3804 9.51843C14.4318 8.36169 12.9552 7.78101 11.4616 7.9996C11.0985 6.97371 10.3594 6.14226 9.42185 5.65089C10.0731 4.67548 11.1742 4.07258 12.376 4.07258ZM12.0832 15.1904H3.41948C2.24548 15.1904 1.29032 14.2353 1.29032 13.0612C1.29032 11.7348 2.49927 10.7204 3.81742 10.9691C4.26218 11.0531 4.6531 10.6638 4.57169 10.219C4.52956 9.98887 4.47024 9.59105 4.47024 9.42706C4.47024 7.78782 5.80383 6.45423 7.44306 6.45423C8.87645 6.45423 10.1057 7.4752 10.366 8.88186C10.4363 9.26218 10.8239 9.49577 11.1931 9.38016C13.1073 8.78089 15.056 10.2168 15.056 12.2176C15.056 13.8568 13.7224 15.1904 12.0832 15.1904ZM20 7.62097C20 7.97726 19.7111 8.26613 19.3548 8.26613H18.629C18.2727 8.26613 17.9839 7.97726 17.9839 7.62097C17.9839 7.26468 18.2727 6.97581 18.629 6.97581H19.3548C19.7111 6.97581 20 7.26468 20 7.62097ZM11.7277 1.37097V0.645161C11.7277 0.288871 12.0166 0 12.3729 0C12.7292 0 13.0181 0.288871 13.0181 0.645161V1.37097C13.0181 1.72726 12.7292 2.01613 12.3729 2.01613C12.0166 2.01613 11.7277 1.72726 11.7277 1.37097ZM17.7648 2.23085C18.0168 2.48278 18.0168 2.89129 17.7648 3.14323L17.2516 3.65645C17.1256 3.78242 16.9605 3.8454 16.7954 3.8454C16.2258 3.8454 15.9315 3.15169 16.3392 2.74403L16.8525 2.23081C17.1044 1.97891 17.5129 1.97891 17.7648 2.23085ZM6.98278 3.14758C6.73081 2.8956 6.73081 2.48714 6.98278 2.2352C7.23472 1.98323 7.64319 1.98323 7.89516 2.2352L8.40839 2.74843C8.81613 3.15617 8.52165 3.8498 7.95222 3.8498C7.7871 3.8498 7.62202 3.78681 7.49605 3.66085L6.98278 3.14758ZM3.06452 17.7823V18.1855C3.06452 18.5418 2.77565 18.8306 2.41935 18.8306C2.06306 18.8306 1.77419 18.5418 1.77419 18.1855V17.7823C1.77419 17.426 2.06306 17.1371 2.41935 17.1371C2.77565 17.1371 3.06452 17.426 3.06452 17.7823ZM5.8871 17.7823V19.3548C5.8871 19.7111 5.59823 20 5.24194 20C4.88564 20 4.59677 19.7111 4.59677 19.3548V17.7823C4.59677 17.426 4.88564 17.1371 5.24194 17.1371C5.59823 17.1371 5.8871 17.426 5.8871 17.7823ZM8.70968 17.7823V18.1855C8.70968 18.5418 8.42081 18.8306 8.06452 18.8306C7.70823 18.8306 7.41935 18.5418 7.41935 18.1855V17.7823C7.41935 17.426 7.70823 17.1371 8.06452 17.1371C8.42081 17.1371 8.70968 17.426 8.70968 17.7823ZM11.5323 17.7823V19.3548C11.5323 19.7111 11.2434 20 10.8871 20C10.5308 20 10.2419 19.7111 10.2419 19.3548V17.7823C10.2419 17.426 10.5308 17.1371 10.8871 17.1371C11.2434 17.1371 11.5323 17.426 11.5323 17.7823ZM14.3548 17.7823V18.1855C14.3548 18.5418 14.066 18.8306 13.7097 18.8306C13.3534 18.8306 13.0645 18.5418 13.0645 18.1855V17.7823C13.0645 17.426 13.3534 17.1371 13.7097 17.1371C14.066 17.1371 14.3548 17.426 14.3548 17.7823Z" fill="black"/>
</g>
<defs>
<clipPath id="clip0">
<rect width="20" height="20" fill="white"/>
</clipPath>
</defs>
</svg>
