<svg width="40" height="40" viewBox="0 0 40 40" fill="none" xmlns="http://www.w3.org/2000/svg">
<path d="M38.8235 18.8235C36.8422 18.8235 35.7937 19.6623 34.9512 20.3362C34.2276 20.9151 33.7048 21.3333 32.5488 21.3333C31.3928 21.3333 30.87 20.9151 30.1464 20.3362C30.0363 20.2482 29.9227 20.1573 29.804 20.066V12.9412H33.7256V10.232L26.9042 0H24.8605L18.0392 10.232V12.9412H21.9608V20.6797C21.4282 21.073 20.9104 21.3333 19.9995 21.3333C18.8436 21.3333 18.3209 20.9151 17.5973 20.3362C16.7549 19.6623 15.7064 18.8235 13.7252 18.8235C12.9402 18.8235 12.302 18.9555 11.7647 19.1564V0H0V40H40V18.8235H38.8235ZM20.6296 10.5882L25.8824 2.70918L31.1351 10.5882H27.451V18.934C27.0984 18.8639 26.7087 18.8235 26.274 18.8235C25.4891 18.8235 24.851 18.9555 24.3137 19.1563V10.5882H20.6296ZM2.35294 37.6471V2.35294H9.41177V4.70588H5.88235V7.05882H9.41177V9.41177H7.05882V11.7647H9.41177V14.1176H5.88235V16.4706H9.41177V18.8235H7.05882V21.1765H9.41177V23.5294H5.88235V25.8824H9.41177V28.2353H7.05882V30.5882H9.41177V32.9412H5.88235V35.2941H9.41177V37.6471H2.35294ZM37.6471 37.6471H11.7647V21.8296C12.297 21.4366 12.8147 21.1765 13.7252 21.1765C14.881 21.1765 15.4038 21.5947 16.1274 22.1736C16.9698 22.8475 18.0182 23.6863 19.9995 23.6863C21.9809 23.6863 23.0293 22.8475 23.8717 22.1736C24.5953 21.5947 25.118 21.1765 26.274 21.1765C27.43 21.1765 27.9529 21.5947 28.6765 22.1736C29.5189 22.8475 30.5674 23.6863 32.5488 23.6863C34.5302 23.6863 35.5787 22.8475 36.4211 22.1736C36.8429 21.8361 37.1965 21.5533 37.6471 21.376V37.6471Z" fill="#FFB300"/>
</svg>
