<svg width="21" height="20" viewBox="0 0 21 20" fill="none" xmlns="http://www.w3.org/2000/svg">
<g clip-path="url(#clip0)">
<path d="M19.5133 9.41177C18.5227 9.41177 17.9984 9.83114 17.5772 10.1681C17.2154 10.4575 16.954 10.6667 16.376 10.6667C15.798 10.6667 15.5365 10.4575 15.1747 10.1681C15.1197 10.1241 15.0629 10.0787 15.0036 10.033V6.47059H16.9643V5.116L13.5536 0H12.5318L9.12117 5.116V6.47059H11.082V10.3398C10.8156 10.5365 10.5567 10.6667 10.1013 10.6667C9.52337 10.6667 9.26199 10.4575 8.90023 10.1681C8.47901 9.83114 7.95478 9.41177 6.96415 9.41177C6.57164 9.41177 6.25258 9.47773 5.98392 9.5782V0H0.101562V20H20.1016V9.41177H19.5133ZM10.4164 5.29412L13.0427 1.35459L15.6691 5.29412H13.8271V9.46702C13.6508 9.43196 13.4559 9.41177 13.2385 9.41177C12.8461 9.41177 12.5271 9.47773 12.2584 9.57816V5.29412H10.4164ZM1.27803 18.8235V1.17647H4.80745V2.35294H3.04274V3.52941H4.80745V4.70588H3.63097V5.88235H4.80745V7.05882H3.04274V8.23529H4.80745V9.41177H3.63097V10.5882H4.80745V11.7647H3.04274V12.9412H4.80745V14.1176H3.63097V15.2941H4.80745V16.4706H3.04274V17.6471H4.80745V18.8235H1.27803ZM18.9251 18.8235H5.98392V10.9148C6.25007 10.7183 6.5089 10.5882 6.96415 10.5882C7.54207 10.5882 7.80348 10.7974 8.16525 11.0868C8.58646 11.4238 9.11066 11.8431 10.1013 11.8431C11.092 11.8431 11.6162 11.4238 12.0374 11.0868C12.3992 10.7974 12.6606 10.5882 13.2385 10.5882C13.8166 10.5882 14.078 10.7974 14.4398 11.0868C14.861 11.4238 15.3853 11.8431 16.376 11.8431C17.3667 11.8431 17.8909 11.4238 18.3121 11.0868C18.523 10.918 18.6998 10.7766 18.9251 10.688V18.8235Z" fill="black"/>
</g>
<defs>
<clipPath id="clip0">
<rect width="20" height="20" fill="white" transform="translate(0.101562)"/>
</clipPath>
</defs>
</svg>
