<svg width="18" height="20" viewBox="0 0 18 20" fill="none" xmlns="http://www.w3.org/2000/svg">
<path d="M17.4957 5.42651L17.4951 5.41094C17.4864 5.21883 17.4806 5.01559 17.4771 4.78945C17.4608 3.6867 16.5841 2.77454 15.4812 2.71289C13.1817 2.58456 11.4029 1.83475 9.88296 0.353278L9.86999 0.340919C9.37424 -0.11364 8.6264 -0.11364 8.13049 0.340919L8.11752 0.353278C6.5976 1.83475 4.81874 2.58456 2.51924 2.71304C1.41649 2.77454 0.539727 3.6867 0.5234 4.78961C0.520043 5.01421 0.514092 5.21746 0.505394 5.41094L0.504479 5.44711C0.459771 7.79192 0.404229 10.7102 1.38048 13.3589C1.91729 14.8155 2.73027 16.0817 3.79671 17.1225C5.0113 18.3078 6.60218 19.2488 8.52509 19.9193C8.58765 19.9411 8.65265 19.9588 8.71887 19.9721C8.81226 19.9907 8.90625 20 9.00024 20C9.09424 20 9.18838 19.9907 9.28161 19.9721C9.34784 19.9588 9.4133 19.9409 9.47616 19.919C11.3968 19.2473 12.986 18.3058 14.1995 17.1207C15.2655 16.0796 16.0785 14.8131 16.6157 13.3562C17.5956 10.6995 17.5403 7.77574 17.4957 5.42651ZM15.5147 12.9501C14.485 15.7419 12.3831 17.6591 9.0889 18.8112C9.07715 18.8151 9.06464 18.8187 9.05167 18.8212C9.01764 18.828 8.983 18.828 8.94852 18.8211C8.9357 18.8185 8.92319 18.8151 8.91159 18.8112C5.61387 17.6613 3.5106 15.7451 2.48171 12.9532C1.5819 10.5116 1.63286 7.83281 1.67788 5.46954L1.67818 5.45641C1.68734 5.25332 1.69344 5.04061 1.6968 4.80685C1.70412 4.3172 2.09413 3.91208 2.5847 3.88476C3.88597 3.81213 5.02915 3.56067 6.07957 3.11603C7.12861 2.672 8.0603 2.04608 8.92761 1.20258C8.97171 1.16535 9.02893 1.1652 9.07288 1.20258C9.94033 2.04608 10.872 2.672 11.9209 3.11603C12.9713 3.56067 14.1145 3.81213 15.4159 3.88476C15.9065 3.91208 16.2965 4.3172 16.3037 4.807C16.3072 5.04199 16.3133 5.25469 16.3225 5.45641C16.3673 7.82243 16.4171 10.5034 15.5147 12.9501Z" fill="black"/>
<path d="M9.00003 5.01611C6.25162 5.01611 4.01575 7.25214 4.01575 10.0004C4.01575 12.7488 6.25162 14.9848 9.00003 14.9848C11.7483 14.9848 13.9843 12.7488 13.9843 10.0004C13.9843 7.25214 11.7483 5.01611 9.00003 5.01611ZM9.00003 13.8111C6.89874 13.8111 5.1893 12.1017 5.1893 10.0004C5.1893 7.89911 6.89874 6.18967 9.00003 6.18967C11.1012 6.18967 12.8106 7.89911 12.8106 10.0004C12.8106 12.1017 11.1012 13.8111 9.00003 13.8111Z" fill="black"/>
<path d="M10.4325 8.45301L8.11749 10.7681L7.48913 10.1397C7.25994 9.91053 6.88839 9.91053 6.6592 10.1397C6.43017 10.3689 6.43017 10.7405 6.6592 10.9695L7.7026 12.0129C7.81719 12.1275 7.96734 12.1847 8.11749 12.1847C8.26763 12.1847 8.41778 12.1275 8.53237 12.0129L11.2625 9.28278C11.4915 9.0536 11.4915 8.68204 11.2625 8.45301C11.0333 8.22367 10.6617 8.22367 10.4325 8.45301Z" fill="black"/>
</svg>
