<svg width="36" height="40" viewBox="0 0 36 40" fill="none" xmlns="http://www.w3.org/2000/svg">
<path d="M34.9912 10.8529L34.9899 10.8218C34.9725 10.4376 34.9609 10.0311 34.9539 9.57882C34.9213 7.37332 33.168 5.54898 30.9622 5.42569C26.3633 5.16904 22.8055 3.66941 19.7657 0.706465L19.7397 0.681745C18.7482 -0.227371 17.2526 -0.227371 16.2607 0.681745L16.2348 0.706465C13.195 3.66941 9.63723 5.16904 5.03824 5.426C2.83274 5.54898 1.07921 7.37332 1.04656 9.57912C1.03984 10.0283 1.02794 10.4348 1.01054 10.8218L1.00871 10.8941C0.919297 15.5837 0.808214 21.4202 2.76072 26.7177C3.83433 29.6309 5.4603 32.1633 7.59317 34.2449C10.0224 36.6155 13.2041 38.4975 17.0499 39.8384C17.175 39.8821 17.3051 39.9175 17.4375 39.944C17.6243 39.9813 17.8123 39.9999 18.0002 39.9999C18.1882 39.9999 18.3765 39.9813 18.563 39.944C18.6954 39.9175 18.8264 39.8818 18.9521 39.8378C22.7933 38.4944 25.9717 36.6115 28.3988 34.2412C30.5307 32.159 32.1567 29.6261 33.2312 26.7123C35.1911 21.3989 35.0803 15.5514 34.9912 10.8529ZM31.0291 25.9002C28.9698 31.4837 24.766 35.3182 18.1775 37.6223C18.1541 37.6302 18.129 37.6372 18.1031 37.6424C18.035 37.6558 17.9658 37.6558 17.8968 37.6421C17.8712 37.6369 17.8461 37.6302 17.8229 37.6223C11.2275 35.3225 7.02096 31.4901 4.96317 25.9063C3.16355 21.0232 3.26548 15.6655 3.35551 10.939L3.35612 10.9127C3.37443 10.5065 3.38664 10.0811 3.39335 9.61361C3.408 8.6343 4.18803 7.82406 5.16916 7.76943C7.77169 7.62417 10.0581 7.12124 12.1589 6.23196C14.257 5.3439 16.1204 4.09208 17.855 2.40507C17.9432 2.33061 18.0576 2.3303 18.1455 2.40507C19.8804 4.09208 21.7438 5.3439 23.8416 6.23196C25.9424 7.12124 28.2288 7.62417 30.8316 7.76943C31.8128 7.82406 32.5928 8.6343 32.6071 9.61391C32.6142 10.0839 32.6264 10.5093 32.6447 10.9127C32.7344 15.6448 32.8339 21.0067 31.0291 25.9002Z" fill="#FFB300"/>
<path d="M17.9998 10.032C12.503 10.032 8.03125 14.5041 8.03125 20.0006C8.03125 25.4974 12.503 29.9695 17.9998 29.9695C23.4963 29.9695 27.9684 25.4974 27.9684 20.0006C27.9684 14.5041 23.4963 10.032 17.9998 10.032ZM17.9998 27.622C13.7972 27.622 10.3784 24.2032 10.3784 20.0006C10.3784 15.798 13.7972 12.3791 17.9998 12.3791C22.2021 12.3791 25.621 15.798 25.621 20.0006C25.621 24.2032 22.2021 27.622 17.9998 27.622Z" fill="#FFB300"/>
<path d="M20.8649 16.9058L16.2347 21.5359L14.978 20.2792C14.5196 19.8208 13.7765 19.8208 13.3182 20.2792C12.8601 20.7376 12.8601 21.4807 13.3182 21.9388L15.405 24.0256C15.6341 24.2547 15.9344 24.3692 16.2347 24.3692C16.535 24.3692 16.8353 24.2547 17.0645 24.0256L22.5247 18.5654C22.9828 18.107 22.9828 17.3639 22.5247 16.9058C22.0663 16.4471 21.3232 16.4471 20.8649 16.9058Z" fill="#FFB300"/>
</svg>
