<svg width="300" height="297" viewBox="0 0 300 297" fill="none" xmlns="http://www.w3.org/2000/svg">
<path d="M173.187 297C241.55 297 296.969 290.554 296.969 282.602C296.969 274.651 241.55 268.205 173.187 268.205C104.824 268.205 49.4043 274.651 49.4043 282.602C49.4043 290.554 104.824 297 173.187 297Z" fill="#3D0517"/>
<path d="M291.39 286.889C295.02 285.536 296.98 284.096 296.98 282.592C296.98 274.641 241.561 268.194 173.187 268.194C104.812 268.194 49.4043 274.641 49.4043 282.592C49.4043 284.085 51.3643 285.525 54.9936 286.889C70.6952 281.034 117.671 276.79 173.187 276.79C228.702 276.79 275.689 281.034 291.39 286.889Z" fill="url(#paint0_linear)"/>
<path d="M153.736 194.034C153.823 189.543 157.635 181.442 161.189 182.538C164.743 183.634 162.373 190.564 164.323 196.398C166.272 202.233 170.698 204.768 171.861 212.88C173.294 222.765 171.301 232.457 173.757 247.414C176.212 262.37 182.372 284.128 188.435 296.893C183.998 296.893 163.16 297.054 153.553 296.817C151.604 280.174 149.989 258.599 149.633 240.881C149.278 222.862 154.264 212.128 153.887 204.715C153.575 198.665 153.704 195.936 153.736 194.034Z" fill="url(#paint1_linear)"/>
<path d="M166.573 237.432C168.835 237.282 171.215 228.525 166.703 226.054C169.578 225.549 171.301 215.234 166.444 212.988C170.752 203.769 164.463 199.514 153.693 199.278C153.693 200.729 153.769 202.501 153.887 204.715C154.264 212.129 149.278 222.863 149.633 240.881C149.72 245.093 149.87 249.477 150.086 254.054C167.284 252.002 169.137 243.557 166.573 237.432Z" fill="#F2B36E"/>
<path d="M142.073 168.107V263.23C142.073 263.996 142.224 264.754 142.518 265.462C142.812 266.17 143.243 266.813 143.786 267.355C144.329 267.897 144.974 268.327 145.683 268.62C146.393 268.913 147.153 269.064 147.921 269.064C149.47 269.061 150.955 268.445 152.049 267.351C153.143 266.257 153.758 264.775 153.758 263.23V168.107H142.073Z" fill="#BE6C00"/>
<path d="M153.758 168.107H142.073V178.616H153.758V168.107Z" fill="#672300"/>
<path d="M142.073 197.881V250.164C142.073 253.388 153.758 253.388 153.758 250.164V197.881C153.758 195.915 142.073 195.431 142.073 197.881Z" fill="#672300"/>
<path d="M140.286 201.373C136.259 201.964 134.019 203.737 133.556 205.94C132.543 210.764 135.817 213.461 134.999 215.921C134.18 218.382 134.008 222.035 135.268 224.109C135.81 224.919 136.153 225.844 136.271 226.811C136.389 227.778 136.278 228.758 135.946 229.674C135.15 232.07 135.731 233.446 137.346 235.434C138.531 236.884 138.553 238.281 138.079 240.516C137.756 241.988 137.433 246.963 146.543 247.575C155.654 248.187 162.622 246.081 164.571 242.084C164.993 241.297 165.159 240.398 165.045 239.512C164.931 238.626 164.543 237.798 163.936 237.142C165.54 236.067 167.877 229.728 164.205 226.086C167.77 224.313 168.254 214.267 163.031 213.042C166.133 211.344 168.136 203.092 160.177 201.599C153.61 200.372 146.88 200.296 140.286 201.373Z" fill="#FDD087"/>
<g opacity="0.68">
<path opacity="0.68" d="M164.819 226.795C164.632 226.544 164.427 226.306 164.205 226.086C164.614 225.878 164.98 225.593 165.282 225.248L148.374 226.15L164.819 226.795Z" fill="#F2B36E"/>
<path opacity="0.68" d="M164.775 213.912C164.273 213.484 163.674 213.185 163.03 213.041C163.398 212.835 163.729 212.57 164.01 212.257L146.284 213.192L164.775 213.912Z" fill="#F2B36E"/>
<path opacity="0.68" d="M163.935 237.11C164.185 236.923 164.403 236.698 164.582 236.443L152.369 237.11L164.334 237.572C164.22 237.402 164.086 237.247 163.935 237.11Z" fill="#F2B36E"/>
</g>
<path d="M164.216 226.086C167.781 224.313 168.266 214.267 163.042 213.042C166.144 211.344 168.147 203.092 160.189 201.599C158.638 201.309 157.087 201.083 155.515 200.911C164.496 203.447 165.853 210.882 157.744 213.246C164.303 214.815 165.67 223.701 160.49 226.14C163.915 227.998 164.496 234.929 161.072 237.185C166.047 243.03 148.547 245.415 138.015 242.31C138.284 244.352 139.899 247.113 146.555 247.575C155.655 248.209 162.633 246.082 164.582 242.085C165.004 241.297 165.17 240.398 165.056 239.512C164.942 238.626 164.555 237.798 163.947 237.142C165.541 236.035 167.878 229.728 164.216 226.086Z" fill="#F2B36E"/>
<path d="M138.002 242.31C138.123 243.047 138.409 243.747 138.837 244.359C139.266 244.971 139.827 245.479 140.479 245.845C141.775 246.576 143.209 247.033 144.69 247.188C146.169 247.371 147.658 247.458 149.148 247.446C150.638 247.452 152.127 247.365 153.607 247.188C156.554 246.94 159.404 246.014 161.931 244.481C163.12 243.714 164.028 242.583 164.516 241.257C164.724 240.607 164.755 239.914 164.608 239.248C164.46 238.582 164.139 237.966 163.676 237.464L163.353 237.163L163.719 236.873C164.391 236.22 164.884 235.406 165.151 234.51C165.484 233.594 165.68 232.635 165.733 231.662C165.825 230.708 165.712 229.744 165.402 228.837C165.092 227.929 164.591 227.097 163.934 226.397L163.579 226.032L164.031 225.785C165.037 225.114 165.758 224.096 166.056 222.927C166.438 221.73 166.602 220.475 166.541 219.22C166.521 217.969 166.219 216.739 165.657 215.621C165.401 215.072 165.027 214.587 164.562 214.199C164.097 213.811 163.552 213.529 162.965 213.375L162.233 213.214L162.89 212.827C163.542 212.371 164.096 211.791 164.522 211.119C164.947 210.448 165.234 209.699 165.367 208.916C165.532 208.124 165.557 207.31 165.442 206.509C165.302 205.733 164.99 204.999 164.527 204.36C163.536 203.039 162.075 202.146 160.445 201.867C158.819 201.534 157.15 201.298 155.502 201.008C157.161 201.233 158.83 201.405 160.477 201.685C162.188 201.926 163.745 202.801 164.839 204.135C165.344 204.838 165.697 205.639 165.873 206.487C166.049 207.335 166.045 208.209 165.862 209.056C165.729 209.915 165.423 210.739 164.962 211.478C164.501 212.217 163.895 212.855 163.181 213.353L163.105 212.795C163.785 212.955 164.421 213.263 164.966 213.698C165.512 214.133 165.954 214.683 166.261 215.309C166.88 216.511 167.219 217.837 167.251 219.188C167.324 220.528 167.156 221.871 166.756 223.153C166.415 224.518 165.564 225.702 164.376 226.462L164.473 225.86C165.23 226.623 165.801 227.55 166.142 228.568C166.477 229.578 166.612 230.644 166.541 231.705C166.477 232.756 166.259 233.791 165.894 234.778C165.571 235.826 164.968 236.766 164.15 237.497V236.906C164.724 237.498 165.127 238.234 165.316 239.036C165.506 239.838 165.475 240.676 165.227 241.461C164.699 242.963 163.683 244.245 162.341 245.104C159.71 246.683 156.736 247.604 153.671 247.79C152.168 247.935 150.658 247.989 149.148 247.951C147.64 247.941 146.135 247.811 144.647 247.564C143.14 247.345 141.694 246.827 140.393 246.039C139.738 245.637 139.183 245.093 138.769 244.448C138.355 243.802 138.093 243.071 138.002 242.31Z" fill="#CB8940"/>
<path d="M163.311 212.946C162.303 213.17 161.275 213.3 160.242 213.333C159.206 213.394 158.167 213.347 157.141 213.193C159.168 212.759 161.255 212.675 163.311 212.946Z" fill="#CB8940"/>
<path d="M164.603 225.946C162.581 226.391 160.496 226.478 158.443 226.205C160.466 225.76 162.551 225.673 164.603 225.946Z" fill="#CB8940"/>
<path d="M164.334 237.11C163.319 237.301 162.287 237.392 161.254 237.38C160.217 237.386 159.183 237.296 158.163 237.11C159.182 236.919 160.217 236.829 161.254 236.841C162.287 236.834 163.318 236.925 164.334 237.11Z" fill="#CB8940"/>
<path d="M152.261 284.58C152.67 288.877 153.101 292.971 153.553 296.818C163.159 297.054 183.998 296.936 188.435 296.893C187.164 294.218 185.904 291.123 184.655 287.803C172.475 288.963 159.519 287.824 152.261 284.58Z" fill="#E4A04E"/>
<path d="M274.129 1.05562L12.5448 23.0629C5.61649 23.6458 0.473604 29.7219 1.05782 36.6343L12.2686 169.279C12.8528 176.191 18.9429 181.322 25.8712 180.739L287.455 158.732C294.384 158.149 299.526 152.073 298.942 145.161L287.731 12.5163C287.147 5.60385 281.057 0.472739 274.129 1.05562Z" fill="url(#paint2_linear)"/>
<path d="M268.113 7.49217L19.5455 28.4043C13.0203 28.9533 8.17652 34.676 8.72676 41.1863L19.0652 163.51C19.6154 170.02 25.3513 174.853 31.8766 174.304L280.444 153.391C286.969 152.842 291.813 147.12 291.262 140.609L280.924 18.2862C280.374 11.7758 274.638 6.9432 268.113 7.49217Z" stroke="black" stroke-width="0.95" stroke-miterlimit="10"/>
<g opacity="0.51">
<path opacity="0.51" d="M184.848 8.56091L40.1514 179.54L97.6163 174.694L242.323 3.72583L184.848 8.56091Z" fill="white"/>
<path opacity="0.51" d="M252.532 2.86633L107.825 173.846L126.553 172.266L271.26 1.28687L252.532 2.86633Z" fill="white"/>
<path opacity="0.51" d="M157.839 10.8387L16.5889 177.724C17.8563 178.819 19.3307 179.649 20.9252 180.166C22.5196 180.683 24.2017 180.876 25.872 180.733L31.8597 180.239L176.567 9.25928L157.839 10.8387Z" fill="white"/>
</g>
<path d="M82.0992 130.999L80.5659 131.128L80.2956 127.896C79.6398 128.128 78.9602 128.273 78.2567 128.332C77.1411 128.426 76.2653 128.211 75.6295 127.689C74.9991 127.166 74.6343 126.377 74.535 125.323L74.3123 122.66L75.8374 122.533L76.0643 125.245C76.203 126.573 76.8989 127.184 78.1519 127.079C78.8554 127.02 79.535 126.875 80.1908 126.643L79.8199 122.208L81.3532 122.08L82.0992 130.999Z" fill="black"/>
<path d="M91.3772 122.486L88.3847 122.737L89.0273 130.42L87.5022 130.548L86.8596 122.864L83.9248 123.11L83.8214 121.873L91.2738 121.25L91.3772 122.486Z" fill="black"/>
<path d="M93.2177 125.495C93.1447 124.622 93.2493 123.821 93.5317 123.095C93.8195 122.368 94.2526 121.789 94.831 121.359C95.4148 120.928 96.0996 120.68 96.8855 120.615C98.1001 120.513 99.1163 120.851 99.9341 121.63C100.757 122.408 101.227 123.495 101.344 124.89L101.353 124.998C101.426 125.866 101.323 126.66 101.046 127.381C100.774 128.095 100.343 128.671 99.7543 129.108C99.1709 129.544 98.478 129.796 97.6756 129.863C96.4665 129.964 95.4504 129.625 94.6271 128.848C93.8093 128.069 93.3425 126.988 93.2267 125.603L93.2177 125.495ZM94.7663 125.549C94.849 126.538 95.1435 127.313 95.6498 127.874C96.1615 128.434 96.8021 128.682 97.5715 128.618C98.3464 128.553 98.9367 128.199 99.3423 127.557C99.7474 126.908 99.9042 126.038 99.8128 124.944C99.731 123.966 99.4312 123.194 98.9135 122.628C98.4008 122.057 97.7598 121.803 96.9903 121.868C96.2374 121.931 95.6552 122.281 95.2436 122.919C94.8321 123.556 94.673 124.433 94.7663 125.549Z" fill="black"/>
<path d="M109.647 128.695L108.901 119.776L112.38 119.485C113.567 119.385 114.494 119.518 115.161 119.883C115.833 120.242 116.202 120.823 116.269 121.625C116.304 122.037 116.211 122.421 115.992 122.777C115.772 123.128 115.428 123.411 114.959 123.627C115.508 123.709 115.96 123.92 116.315 124.261C116.676 124.602 116.878 125.027 116.92 125.539C116.989 126.357 116.739 127.009 116.171 127.494C115.608 127.978 114.777 128.266 113.678 128.358L109.647 128.695ZM110.844 124.652L111.069 127.34L113.592 127.129C114.229 127.075 114.695 126.917 114.988 126.655C115.287 126.392 115.419 126.046 115.383 125.617C115.308 124.727 114.617 124.337 113.309 124.446L110.844 124.652ZM110.742 123.432L112.712 123.267C114.141 123.148 114.821 122.67 114.751 121.835C114.681 121 113.969 120.625 112.615 120.71L110.529 120.885L110.742 123.432Z" fill="black"/>
<path d="M121.172 121.846L123.489 121.652C124.501 121.578 125.323 121.775 125.954 122.243C126.585 122.71 126.938 123.386 127.012 124.271C127.086 125.162 126.844 125.901 126.284 126.49C125.725 127.08 124.934 127.417 123.912 127.502L120.136 127.818L119.39 118.898L120.915 118.771L121.172 121.846ZM130.441 126.956L128.907 127.085L128.161 118.165L129.695 118.037L130.441 126.956ZM121.276 123.091L121.557 126.446L123.824 126.256C124.396 126.208 124.826 126.026 125.115 125.708C125.403 125.385 125.526 124.968 125.483 124.457C125.442 123.963 125.254 123.571 124.92 123.284C124.591 122.99 124.152 122.861 123.601 122.896L121.276 123.091Z" fill="black"/>
<path d="M137.16 117.927C138.281 117.833 139.209 118.135 139.942 118.831C140.681 119.522 141.101 120.481 141.204 121.706L141.215 121.846C141.286 122.687 141.187 123.454 140.918 124.146C140.649 124.832 140.225 125.385 139.645 125.805C139.071 126.218 138.388 126.458 137.597 126.524C136.399 126.624 135.401 126.306 134.603 125.57C133.805 124.829 133.35 123.785 133.237 122.439L133.175 121.697C133.019 119.823 133.24 118.305 133.84 117.142C134.446 115.979 135.417 115.22 136.755 114.864C137.513 114.663 138.018 114.452 138.271 114.231C138.523 114.011 138.635 113.727 138.606 113.381L139.859 113.276C139.917 113.963 139.805 114.512 139.524 114.923C139.248 115.334 138.776 115.647 138.108 115.864L136.992 116.214C136.103 116.504 135.452 116.924 135.039 117.473C134.63 118.017 134.393 118.717 134.326 119.575C135.056 118.573 136.001 118.024 137.16 117.927ZM136.968 119.205C136.221 119.267 135.648 119.57 135.251 120.112C134.853 120.649 134.691 121.363 134.766 122.253L134.777 122.385C134.857 123.341 135.14 124.081 135.627 124.605C136.118 125.123 136.741 125.35 137.494 125.287C138.252 125.224 138.828 124.893 139.22 124.296C139.613 123.699 139.764 122.861 139.674 121.784C139.604 120.943 139.325 120.289 138.838 119.82C138.355 119.346 137.732 119.141 136.968 119.205Z" fill="black"/>
<path d="M151.145 120.833C151.259 122.191 151.04 123.31 150.488 124.192C149.937 125.074 149.131 125.559 148.07 125.648C146.987 125.738 146.107 125.466 145.428 124.831L145.787 129.126L144.262 129.254L143.229 116.905L144.623 116.788L144.78 117.771C145.336 116.95 146.167 116.493 147.272 116.4C148.343 116.311 149.223 116.644 149.912 117.4C150.606 118.155 151.013 119.253 151.134 120.693L151.145 120.833ZM149.606 120.788C149.522 119.782 149.241 119.006 148.764 118.459C148.286 117.912 147.674 117.67 146.926 117.733C146.003 117.81 145.345 118.277 144.952 119.135L145.308 123.397C145.832 124.172 146.564 124.52 147.504 124.442C148.235 124.381 148.791 124.044 149.171 123.431C149.557 122.812 149.702 121.931 149.606 120.788Z" fill="black"/>
<path d="M159.807 124.5C159.704 124.332 159.606 124.024 159.514 123.578C158.866 124.374 158.051 124.813 157.067 124.895C156.188 124.969 155.444 124.782 154.837 124.335C154.235 123.882 153.901 123.273 153.837 122.509C153.76 121.58 154.051 120.831 154.712 120.261C155.378 119.685 156.351 119.344 157.631 119.236L159.115 119.112L159.057 118.412C159.012 117.879 158.817 117.469 158.472 117.182C158.127 116.89 157.644 116.77 157.023 116.822C156.479 116.867 156.034 117.043 155.689 117.348C155.344 117.654 155.187 118.002 155.22 118.392L153.687 118.52C153.649 118.075 153.77 117.633 154.049 117.195C154.333 116.751 154.734 116.385 155.252 116.098C155.776 115.811 156.362 115.64 157.011 115.586C158.038 115.5 158.865 115.691 159.491 116.159C160.116 116.621 160.478 117.302 160.575 118.202L160.918 122.307C160.987 123.126 161.146 123.768 161.395 124.235L161.406 124.366L159.807 124.5ZM157.179 123.55C157.657 123.51 158.1 123.348 158.508 123.065C158.916 122.782 159.2 122.434 159.359 122.022L159.206 120.192L158.01 120.292C156.142 120.449 155.253 121.074 155.345 122.167C155.385 122.645 155.575 123.006 155.917 123.248C156.258 123.491 156.679 123.591 157.179 123.55Z" fill="black"/>
<path d="M170.894 114.591L171.64 123.511L170.107 123.639L169.466 115.98L166.432 116.234L166.53 119.588C166.559 121.13 166.393 122.248 166.03 122.942C165.673 123.636 165.045 124.034 164.146 124.137L163.536 124.188L163.424 122.845L163.858 122.775C164.348 122.679 164.679 122.363 164.85 121.829C165.021 121.294 165.078 120.326 165.022 118.925L164.868 115.095L170.894 114.591Z" fill="black"/>
<path d="M179.957 113.833L181.482 113.705L182.228 122.625L180.703 122.753L180.159 116.248L176.589 123.097L175.064 123.224L174.318 114.304L175.843 114.177L176.388 120.689L179.957 113.833Z" fill="black"/>
<path d="M197.84 121.319L196.315 121.447L195.997 117.638L191.899 117.981L192.218 121.79L190.685 121.918L189.939 112.998L191.472 112.87L191.795 116.736L195.892 116.393L195.569 112.527L197.094 112.4L197.84 121.319Z" fill="black"/>
<path d="M206.648 120.583C206.545 120.414 206.448 120.107 206.355 119.661C205.708 120.457 204.892 120.896 203.908 120.978C203.029 121.051 202.286 120.864 201.678 120.417C201.076 119.964 200.743 119.355 200.679 118.591C200.601 117.663 200.893 116.913 201.553 116.343C202.219 115.767 203.192 115.426 204.473 115.319L205.957 115.195L205.898 114.494C205.853 113.961 205.659 113.551 205.314 113.264C204.968 112.972 204.485 112.852 203.864 112.904C203.32 112.95 202.875 113.125 202.53 113.431C202.185 113.736 202.028 114.084 202.061 114.475L200.528 114.603C200.49 114.158 200.611 113.716 200.89 113.277C201.174 112.833 201.575 112.468 202.093 112.181C202.617 111.893 203.203 111.723 203.852 111.668C204.88 111.582 205.706 111.773 206.332 112.241C206.957 112.704 207.319 113.385 207.416 114.284L207.759 118.389C207.828 119.208 207.987 119.851 208.236 120.317L208.247 120.449L206.648 120.583ZM204.02 119.632C204.498 119.592 204.941 119.43 205.349 119.147C205.757 118.864 206.041 118.517 206.2 118.105L206.047 116.275L204.852 116.375C202.983 116.531 202.094 117.156 202.186 118.25C202.226 118.728 202.416 119.088 202.758 119.331C203.099 119.573 203.52 119.674 204.02 119.632Z" fill="black"/>
<path d="M214.656 118.825C215.2 118.78 215.662 118.575 216.041 118.211C216.42 117.848 216.611 117.417 216.614 116.918L218.056 116.798C218.072 117.311 217.936 117.812 217.651 118.301C217.365 118.79 216.962 119.194 216.441 119.515C215.925 119.834 215.365 120.02 214.76 120.07C213.546 120.172 212.545 119.849 211.757 119.101C210.975 118.347 210.525 117.267 210.407 115.86L210.386 115.605C210.313 114.736 210.408 113.951 210.67 113.248C210.932 112.545 211.344 111.982 211.907 111.559C212.475 111.135 213.165 110.889 213.979 110.821C214.979 110.738 215.834 110.968 216.543 111.512C217.258 112.055 217.678 112.803 217.802 113.756L216.359 113.876C216.267 113.303 216.008 112.849 215.581 112.514C215.16 112.173 214.66 112.026 214.083 112.074C213.308 112.139 212.73 112.47 212.348 113.066C211.972 113.657 211.827 114.48 211.916 115.535L211.94 115.823C212.026 116.851 212.303 117.625 212.773 118.144C213.243 118.664 213.87 118.891 214.656 118.825Z" fill="black"/>
<path d="M67.1325 93.2688C67.2372 95.4689 66.8281 97.4628 65.9054 99.2504C64.9813 101.024 63.5825 102.463 61.709 103.57C59.8499 104.675 57.6665 105.345 55.1588 105.58C51.0225 105.968 47.6389 104.926 45.008 102.454C42.3772 99.9821 40.8312 96.2888 40.3702 91.3742L40.2242 89.8177C39.9348 86.7335 40.2152 83.9884 41.0654 81.5824C41.9286 79.1606 43.3103 77.2282 45.2103 75.785C47.1091 74.3275 49.3843 73.4743 52.0362 73.2255C55.8554 72.8672 59.0198 73.5881 61.5295 75.3881C64.0378 77.1737 65.6161 79.8171 66.2644 83.3183L58.698 84.0282C58.4606 82.1168 57.8486 80.7857 56.8623 80.035C55.8759 79.2843 54.4531 78.9961 52.5939 79.1705C50.7059 79.3477 49.3886 80.1836 48.642 81.6785C47.8953 83.1734 47.6457 85.4722 47.8932 88.5748L48.1021 90.8015C48.4171 94.1596 49.0602 96.52 50.0313 97.8828C51.0169 99.2442 52.5401 99.8283 54.601 99.6349C56.3449 99.4713 57.6395 98.9355 58.4848 98.0275C59.3301 97.1194 59.6978 95.7692 59.5878 93.9766L67.1325 93.2688Z" fill="black"/>
<path d="M100.374 100.902L92.7859 101.614L90.3825 75.9961L79.0762 77.0568L81.4795 102.674L73.8915 103.386L70.9385 71.9101L97.4209 69.4257L100.374 100.902Z" fill="black"/>
<path d="M124.649 92.6926L114.25 93.6681L112.986 99.7187L104.879 100.479L113.47 67.92L120.604 67.2507L135.188 97.6358L127.038 98.4004L124.649 92.6926ZM115.517 87.6392L122.283 87.0044L117.865 76.4056L115.517 87.6392Z" fill="black"/>
<path d="M163.706 84.2088C163.81 86.4089 163.401 88.4027 162.479 90.1904C161.554 91.9636 160.156 93.4033 158.282 94.5096C156.423 95.6145 154.24 96.2846 151.732 96.5199C147.596 96.9079 144.212 95.8659 141.581 93.394C138.95 90.922 137.404 87.2287 136.943 82.3142L136.797 80.7576C136.508 77.6734 136.788 74.9283 137.638 72.5223C138.502 70.1006 139.883 68.1681 141.783 66.725C143.682 65.2674 145.957 64.4142 148.609 64.1654C152.429 63.8071 155.593 64.528 158.103 66.328C160.611 68.1136 162.189 70.757 162.838 74.2583L155.271 74.9681C155.034 73.0567 154.422 71.7256 153.435 70.9749C152.449 70.2242 151.026 69.936 149.167 70.1105C147.279 70.2876 145.962 71.1236 145.215 72.6184C144.468 74.1133 144.219 76.4121 144.466 79.5148L144.675 81.7414C144.99 85.0995 145.633 87.4599 146.604 88.8227C147.59 90.1841 149.113 90.7682 151.174 90.5748C152.918 90.4112 154.213 89.8754 155.058 88.9674C155.903 88.0594 156.271 86.7091 156.161 84.9166L163.706 84.2088Z" fill="black"/>
<path d="M186.017 61.114L193.605 60.4021L196.558 91.8783L188.97 92.5902L187.108 72.7446L177.664 93.6509L170.075 94.3628L167.123 62.8866L174.711 62.1747L176.574 82.0419L186.017 61.114Z" fill="black"/>
<path d="M222.289 63.6213L208.647 64.901L209.114 69.8732L213.027 69.5061C215.52 69.2722 217.765 69.4905 219.762 70.161C221.758 70.8315 223.341 71.897 224.51 73.3575C225.693 74.8022 226.378 76.5263 226.566 78.5296C226.857 81.6282 225.94 84.2513 223.815 86.3988C221.704 88.545 218.711 89.8 214.834 90.1637L203.419 91.2346L200.467 59.7584L221.739 57.7627L222.289 63.6213ZM209.661 75.7101L210.503 84.6817L214.394 84.3167C215.937 84.172 217.114 83.6254 217.926 82.6768C218.753 81.7269 219.102 80.5674 218.974 79.1982C218.852 77.9011 218.307 76.8981 217.339 76.1893C216.371 75.4805 215.095 75.2004 213.51 75.3491L209.661 75.7101Z" fill="black"/>
<path d="M258.544 70.8407C258.832 73.9104 258.518 76.6805 257.601 79.151C256.684 81.6214 255.234 83.5966 253.25 85.0767C251.279 86.541 248.954 87.3989 246.273 87.6504C243.592 87.9019 241.157 87.5125 238.966 86.4822C236.775 85.4374 234.988 83.824 233.605 81.642C232.237 79.4586 231.385 76.8852 231.049 73.9217L230.883 72.149C230.594 69.0648 230.901 66.2954 231.805 63.8407C232.721 61.3703 234.172 59.3951 236.156 57.915C238.154 56.4335 240.5 55.5664 243.196 55.3136C245.862 55.0634 248.299 55.4745 250.508 56.5467C252.717 57.6189 254.508 59.2755 255.881 61.5165C257.268 63.7418 258.11 66.367 258.408 69.3922L258.544 70.8407ZM250.703 70.246C250.409 67.1185 249.661 64.7971 248.457 63.2816C247.267 61.7504 245.699 61.0761 243.753 61.2586C239.948 61.6155 238.206 64.6578 238.525 70.3853L238.72 72.7004C239.01 75.7847 239.744 78.1075 240.922 79.6689C242.101 81.2303 243.699 81.9163 245.717 81.727C247.634 81.5472 249.035 80.5943 249.92 78.8684C250.805 77.1425 251.111 74.7511 250.839 71.6944L250.703 70.246Z" fill="black"/>
<defs>
<linearGradient id="paint0_linear" x1="49.4043" y1="277.552" x2="296.98" y2="277.552" gradientUnits="userSpaceOnUse">
<stop stop-color="#410820"/>
<stop offset="0.52" stop-color="#8C0031"/>
<stop offset="1" stop-color="#410820"/>
</linearGradient>
<linearGradient id="paint1_linear" x1="176.04" y1="226.182" x2="161.22" y2="282.222" gradientUnits="userSpaceOnUse">
<stop stop-color="#FDD087"/>
<stop offset="1" stop-color="#F2BD76"/>
</linearGradient>
<linearGradient id="paint2_linear" x1="111.518" y1="126.101" x2="238.771" y2="8.96825" gradientUnits="userSpaceOnUse">
<stop stop-color="#FFBC00"/>
<stop offset="1" stop-color="#FFFF00"/>
</linearGradient>
</defs>
</svg>
