<svg width="20" height="20" viewBox="0 0 20 20" fill="none" xmlns="http://www.w3.org/2000/svg">
<path d="M9.41132 12.968V5.24292C9.41132 4.91928 9.14902 4.65698 8.82538 4.65698C8.50189 4.65698 8.23944 4.91928 8.23944 5.24292V12.968C7.20947 13.2298 6.44531 14.1649 6.44531 15.2754C6.44531 16.588 7.51297 17.6558 8.82538 17.6558C10.1378 17.6558 11.2056 16.588 11.2056 15.2754C11.2056 14.1649 10.4413 13.2298 9.41132 12.968ZM8.82538 16.4839C8.15918 16.4839 7.61719 15.9418 7.61719 15.2754C7.61719 14.6089 8.15918 14.0668 8.82538 14.0668C9.49173 14.0668 10.0337 14.6089 10.0337 15.2754C10.0337 15.9418 9.49173 16.4839 8.82538 16.4839Z" fill="black"/>
<path d="M11.7334 11.5518V2.90833C11.7334 1.30463 10.4289 0 8.82538 0C7.22198 0 5.91751 1.30463 5.91751 2.90833V11.5518C4.77493 12.4449 4.10156 13.8144 4.10156 15.2753C4.10156 17.8806 6.2207 20 8.82538 20C11.4302 20 13.5493 17.8806 13.5493 15.2753C13.5493 13.8144 12.876 12.4449 11.7334 11.5518ZM8.82538 18.8281C6.86676 18.8281 5.27344 17.2343 5.27344 15.2753C5.27344 14.0968 5.85632 12.9973 6.83273 12.334C6.99326 12.2249 7.08939 12.0433 7.08939 11.8492V2.90833C7.08939 1.95084 7.86819 1.17188 8.82538 1.17188C9.78271 1.17188 10.5615 1.95084 10.5615 2.90833V11.8492C10.5615 12.0433 10.6577 12.2249 10.8182 12.334C11.7946 12.9973 12.3775 14.0968 12.3775 15.2753C12.3775 17.2343 10.784 18.8281 8.82538 18.8281Z" fill="black"/>
<path d="M15.3072 9.35498H13.4912C13.1676 9.35498 12.9053 9.61728 12.9053 9.94092C12.9053 10.2646 13.1676 10.5269 13.4912 10.5269H15.3072C15.6306 10.5269 15.8931 10.2646 15.8931 9.94092C15.8931 9.61728 15.6306 9.35498 15.3072 9.35498Z" fill="black"/>
<path d="M15.3072 7.01074H13.4912C13.1676 7.01074 12.9053 7.27304 12.9053 7.59668C12.9053 7.92032 13.1676 8.18262 13.4912 8.18262H15.3072C15.6306 8.18262 15.8931 7.92032 15.8931 7.59668C15.8931 7.27304 15.6306 7.01074 15.3072 7.01074Z" fill="black"/>
<path d="M15.3072 4.66663H13.4912C13.1676 4.66663 12.9053 4.92892 12.9053 5.25256C12.9053 5.5762 13.1676 5.8385 13.4912 5.8385H15.3072C15.6306 5.8385 15.8931 5.5762 15.8931 5.25256C15.8931 4.92892 15.6306 4.66663 15.3072 4.66663Z" fill="black"/>
<path d="M13.4912 3.49426H15.3072C15.6306 3.49426 15.8931 3.23196 15.8931 2.90833C15.8931 2.58484 15.6306 2.32239 15.3072 2.32239H13.4912C13.1676 2.32239 12.9053 2.58484 12.9053 2.90833C12.9053 3.23196 13.1676 3.49426 13.4912 3.49426Z" fill="black"/>
</svg>
