<svg width="31" height="30" viewBox="0 0 31 30" fill="none" xmlns="http://www.w3.org/2000/svg">
<path d="M26.4585 23.122C25.1122 24.3122 23.161 25.1659 20.6049 25.6829C18.0488 26.2 15.4146 26.3512 12.7024 26.1366L7.55122 30V25.1707C5.85366 24.6439 4.52683 23.961 3.57073 23.122C2.43902 22.1268 1.56098 20.6976 0.936585 18.8341C0.312195 16.9707 0 15.0683 0 13.1268C0 11.1854 0.312195 9.28293 0.936585 7.41951C1.56098 5.5561 2.4439 4.12195 3.58537 3.11707C4.72683 2.1122 6.36098 1.34146 8.4878 0.804878C10.6146 0.268293 12.7902 0 15.0146 0C17.239 0 19.4146 0.268293 21.5415 0.804878C23.6683 1.34146 25.3024 2.1122 26.4439 3.11707C27.5854 4.12195 28.4683 5.5561 29.0927 7.41951C29.7171 9.28293 30.0293 11.1854 30.0293 13.1268C30.0293 15.0683 29.7171 16.9707 29.0927 18.8341C28.4683 20.6976 27.5902 22.1268 26.4585 23.122ZM18.7024 15.9512L20.6049 16.2732C20.4488 13.9317 19.5463 11.9317 17.8976 10.2732C16.2488 8.61463 14.2537 7.70732 11.9122 7.55122L12.2341 9.45366C13.9122 9.66829 15.3561 10.3805 16.5659 11.5902C17.7756 12.8 18.4878 14.2537 18.7024 15.9512ZM12.5561 11.4146L12.9073 13.522C13.6878 13.9122 14.2634 14.4878 14.6341 15.2488L16.7415 15.6C16.5073 14.5659 16.0098 13.6732 15.2488 12.922C14.4878 12.1707 13.5902 11.6683 12.5561 11.4146ZM9.42439 13.1415V11.2683C9.42439 10.9366 9.30244 10.6049 9.05854 10.2732C8.81463 9.94146 8.5561 9.70244 8.28293 9.5561C8.00976 9.40976 7.80488 9.39512 7.66829 9.5122L6.32195 10.8878C5.56098 11.6488 5.44878 12.8341 5.98537 14.4439C6.52195 16.0537 7.54634 17.6146 9.05854 19.1268C10.5707 20.639 12.1317 21.6634 13.7415 22.2C15.3512 22.7366 16.5268 22.6244 17.2683 21.8634L18.6439 20.4878C18.7805 20.3707 18.7756 20.1707 18.6293 19.8878C18.4829 19.6049 18.2439 19.3463 17.9122 19.1122C17.5805 18.878 17.2488 18.761 16.9171 18.761H15.0439L13.961 19.6976C13.1024 19.4634 12.0341 18.7073 10.7561 17.4293C9.47805 16.1512 8.72195 15.0732 8.4878 14.1951L9.42439 13.1415ZM11.2976 3.77561L11.5902 5.67805C13.5415 5.71707 15.3463 6.22927 17.0049 7.21463C18.6634 8.2 19.9805 9.51707 20.9561 11.1659C21.9317 12.8146 22.4488 14.6146 22.5073 16.5659L24.4098 16.8878C24.4098 15.1122 24.0634 13.4146 23.3707 11.7951C22.678 10.1756 21.7463 8.78049 20.5756 7.60976C19.4049 6.43902 18.0098 5.50732 16.3902 4.81463C14.7707 4.12195 13.0732 3.77561 11.2976 3.77561Z" fill="#FFB300"/>
</svg>
