<svg width="25" height="24" viewBox="0 0 25 24" fill="none" xmlns="http://www.w3.org/2000/svg">
<path d="M23.2 5.54982C19.6 -0.000183463 12.25 -1.65018 6.55004 1.79982C1.00004 5.24982 -0.799964 12.7498 2.80004 18.2998L3.10004 18.7498L1.90004 23.2498L6.40004 22.0498L6.85004 22.3498C8.80004 23.3998 10.9 23.9998 13 23.9998C15.25 23.9998 17.5 23.3998 19.45 22.1998C25 18.5998 26.65 11.2498 23.2 5.54982ZM20.05 17.0998C19.45 17.9998 18.7 18.5998 17.65 18.7498C17.05 18.7498 16.3 19.0498 13.3 17.8498C10.75 16.6498 8.65004 14.6998 7.15004 12.4498C6.25004 11.3998 5.80004 10.0498 5.65004 8.69982C5.65004 7.49982 6.10004 6.44982 6.85004 5.69982C7.15004 5.39982 7.45004 5.24982 7.75004 5.24982H8.50004C8.80004 5.24982 9.10004 5.24982 9.25004 5.84982C9.55004 6.59982 10.3 8.39982 10.3 8.54982C10.45 8.69982 10.45 8.99982 10.3 9.14982C10.45 9.44982 10.3 9.74982 10.15 9.89982C10 10.0498 9.85004 10.3498 9.70004 10.4998C9.40004 10.6498 9.25004 10.9498 9.40004 11.2498C10 12.1498 10.75 13.0498 11.5 13.7998C12.4 14.5498 13.3 15.1498 14.35 15.5998C14.65 15.7498 14.95 15.7498 15.1 15.4498C15.25 15.1498 16 14.3998 16.3 14.0998C16.6 13.7998 16.75 13.7998 17.05 13.9498L19.45 15.1498C19.75 15.2998 20.05 15.4498 20.2 15.5998C20.35 16.0498 20.35 16.6498 20.05 17.0998Z" fill="#FFB300"/>
</svg>
